<?xml version="1.0" encoding="UTF-8"?> <svg xmlns="http://www.w3.org/2000/svg" id="el_MayoXWMqf" data-name="Layer 1" viewBox="0 0 512 512"><style>@-webkit-keyframes kf_el_W3Cd_8EEfS_an_MkRhJMUib{50%{-webkit-transform: translate(136px, 304px) scale(0, 0) translate(-136px, -304px);transform: translate(136px, 304px) scale(0, 0) translate(-136px, -304px);}57.78%{-webkit-transform: translate(136px, 304px) scale(1, 1) translate(-136px, -304px);transform: translate(136px, 304px) scale(1, 1) translate(-136px, -304px);}92.22%{-webkit-transform: translate(136px, 304px) scale(1, 1) translate(-136px, -304px);transform: translate(136px, 304px) scale(1, 1) translate(-136px, -304px);}100%{-webkit-transform: translate(136px, 304px) scale(0, 0) translate(-136px, -304px);transform: translate(136px, 304px) scale(0, 0) translate(-136px, -304px);}0%{-webkit-transform: translate(136px, 304px) scale(0, 0) translate(-136px, -304px);transform: translate(136px, 304px) scale(0, 0) translate(-136px, -304px);}}@keyframes kf_el_W3Cd_8EEfS_an_MkRhJMUib{50%{-webkit-transform: translate(136px, 304px) scale(0, 0) translate(-136px, -304px);transform: translate(136px, 304px) scale(0, 0) translate(-136px, -304px);}57.78%{-webkit-transform: translate(136px, 304px) scale(1, 1) translate(-136px, -304px);transform: translate(136px, 304px) scale(1, 1) translate(-136px, -304px);}92.22%{-webkit-transform: translate(136px, 304px) scale(1, 1) translate(-136px, -304px);transform: translate(136px, 304px) scale(1, 1) translate(-136px, -304px);}100%{-webkit-transform: translate(136px, 304px) scale(0, 0) translate(-136px, -304px);transform: translate(136px, 304px) scale(0, 0) translate(-136px, -304px);}0%{-webkit-transform: translate(136px, 304px) scale(0, 0) translate(-136px, -304px);transform: translate(136px, 304px) scale(0, 0) translate(-136px, -304px);}}@-webkit-keyframes kf_el_8DJ2t38phm_an_Xw5_Q2oty{0%{-webkit-transform: translate(376px, 64px) scale(0, 0) translate(-376px, -64px);transform: translate(376px, 64px) scale(0, 0) translate(-376px, -64px);}8.89%{-webkit-transform: translate(376px, 64px) scale(1, 1) translate(-376px, -64px);transform: translate(376px, 64px) scale(1, 1) translate(-376px, -64px);}40%{-webkit-transform: translate(376px, 64px) scale(1, 1) translate(-376px, -64px);transform: translate(376px, 64px) scale(1, 1) translate(-376px, -64px);}50%{-webkit-transform: translate(376px, 64px) scale(0, 0) translate(-376px, -64px);transform: translate(376px, 64px) scale(0, 0) translate(-376px, -64px);}100%{-webkit-transform: translate(376px, 64px) scale(0, 0) translate(-376px, -64px);transform: translate(376px, 64px) scale(0, 0) translate(-376px, -64px);}}@keyframes kf_el_8DJ2t38phm_an_Xw5_Q2oty{0%{-webkit-transform: translate(376px, 64px) scale(0, 0) translate(-376px, -64px);transform: translate(376px, 64px) scale(0, 0) translate(-376px, -64px);}8.89%{-webkit-transform: translate(376px, 64px) scale(1, 1) translate(-376px, -64px);transform: translate(376px, 64px) scale(1, 1) translate(-376px, -64px);}40%{-webkit-transform: translate(376px, 64px) scale(1, 1) translate(-376px, -64px);transform: translate(376px, 64px) scale(1, 1) translate(-376px, -64px);}50%{-webkit-transform: translate(376px, 64px) scale(0, 0) translate(-376px, -64px);transform: translate(376px, 64px) scale(0, 0) translate(-376px, -64px);}100%{-webkit-transform: translate(376px, 64px) scale(0, 0) translate(-376px, -64px);transform: translate(376px, 64px) scale(0, 0) translate(-376px, -64px);}}@-webkit-keyframes kf_el_mTGh_b-es-_an_k9ZEbGmva{0%{opacity: 1;}50%{opacity: 0.5;}100%{opacity: 1;}}@keyframes kf_el_mTGh_b-es-_an_k9ZEbGmva{0%{opacity: 1;}50%{opacity: 0.5;}100%{opacity: 1;}}@-webkit-keyframes kf_el_-mIFG_JxM1_an_KAm_c5KgK{0%{opacity: 1;}25.56%{opacity: 0.6;}50%{opacity: 1;}65.56%{opacity: 0.6;}100%{opacity: 1;}}@keyframes kf_el_-mIFG_JxM1_an_KAm_c5KgK{0%{opacity: 1;}25.56%{opacity: 0.6;}50%{opacity: 1;}65.56%{opacity: 0.6;}100%{opacity: 1;}}#el_MayoXWMqf *{-webkit-animation-duration: 3s;animation-duration: 3s;-webkit-animation-iteration-count: infinite;animation-iteration-count: infinite;-webkit-animation-timing-function: cubic-bezier(0, 0, 1, 1);animation-timing-function: cubic-bezier(0, 0, 1, 1);}#el_-mIFG_JxM1{fill: #ed4d79;-webkit-animation-fill-mode: backwards;animation-fill-mode: backwards;opacity: 1;-webkit-animation-name: kf_el_-mIFG_JxM1_an_KAm_c5KgK;animation-name: kf_el_-mIFG_JxM1_an_KAm_c5KgK;-webkit-animation-timing-function: cubic-bezier(0, 0, 1, 1);animation-timing-function: cubic-bezier(0, 0, 1, 1);}#el_mTGh_b-es-{fill: #ed4d79;-webkit-animation-fill-mode: backwards;animation-fill-mode: backwards;opacity: 1;-webkit-animation-name: kf_el_mTGh_b-es-_an_k9ZEbGmva;animation-name: kf_el_mTGh_b-es-_an_k9ZEbGmva;-webkit-animation-timing-function: cubic-bezier(0, 0, 1, 1);animation-timing-function: cubic-bezier(0, 0, 1, 1);}#el_W3Cd_8EEfS{fill: #ed4d79;}#el_8DJ2t38phm{fill: #ed4d79;}#el_jyXH4s8khW{fill: #4c4fe8;}#el_9cWL1Ww0__{fill: #4c4fe8;}#el_yxDdmLt78w{fill: #4c4fe8;}#el_nksOYajNgO{fill: #4c4fe8;}#el_OkU69tzmqO{fill: #4c4fe8;}#el_8DJ2t38phm_an_Xw5_Q2oty{-webkit-animation-fill-mode: backwards;animation-fill-mode: backwards;-webkit-transform: translate(376px, 64px) scale(0, 0) translate(-376px, -64px);transform: translate(376px, 64px) scale(0, 0) translate(-376px, -64px);-webkit-animation-name: kf_el_8DJ2t38phm_an_Xw5_Q2oty;animation-name: kf_el_8DJ2t38phm_an_Xw5_Q2oty;-webkit-animation-timing-function: cubic-bezier(0, 0, 1, 1);animation-timing-function: cubic-bezier(0, 0, 1, 1);}#el_W3Cd_8EEfS_an_MkRhJMUib{-webkit-animation-fill-mode: backwards;animation-fill-mode: backwards;-webkit-transform: translate(136px, 304px) scale(0, 0) translate(-136px, -304px);transform: translate(136px, 304px) scale(0, 0) translate(-136px, -304px);-webkit-animation-name: kf_el_W3Cd_8EEfS_an_MkRhJMUib;animation-name: kf_el_W3Cd_8EEfS_an_MkRhJMUib;-webkit-animation-timing-function: cubic-bezier(0, 0, 1, 1);animation-timing-function: cubic-bezier(0, 0, 1, 1);}</style><defs></defs><title>Digital Marketing Strategies</title><path d="M232,200H72V176.14a40.19,40.19,0,0,1,29-38.47l27-7.7v-2.14A40,40,0,0,1,112,96V80a40,40,0,0,1,43.56-39.85C176,41.93,192,60.16,192,81.66V96a40,40,0,0,1-16,31.83V130l27,7.7a40.18,40.18,0,0,1,29,38.47Z" id="el_-mIFG_JxM1"></path><path d="M440,328H280V304.14a40.19,40.19,0,0,1,29-38.47l27-7.7v-2.14A40,40,0,0,1,320,224V208a40,40,0,0,1,43.56-39.85c20.43,1.78,36.44,20,36.44,41.51V224a40,40,0,0,1-16,31.83V258l27,7.7a40.18,40.18,0,0,1,29,38.47Z" id="el_mTGh_b-es-"></path><g id="el_W3Cd_8EEfS_an_MkRhJMUib" data-animator-group="true" data-animator-type="2"><path d="M216,360H56V280h53.87L176,248v32h40Z" id="el_W3Cd_8EEfS"></path></g><g id="el_8DJ2t38phm_an_Xw5_Q2oty" data-animator-group="true" data-animator-type="2"><path d="M336,120V88H296V8H456V88H402.13Z" id="el_8DJ2t38phm"></path></g><path d="M472,136.81V136H264V8H40V136.81A40.08,40.08,0,0,0,8,176V416a40.05,40.05,0,0,0,40,40H152v32H120v16H392V488H360V456H464a40.05,40.05,0,0,0,40-40V176A40.08,40.08,0,0,0,472,136.81ZM448,152h8V344H264V152ZM56,24H248V216H56ZM40,153.47V232H248V360H472V153.47A24,24,0,0,1,488,176V376H24V176A24,24,0,0,1,40,153.47ZM344,488H168V456H344Zm120-48H48a24,24,0,0,1-24-24V392H488v24A24,24,0,0,1,464,440Z" id="el_jyXH4s8khW"></path><path d="M56,408H72v16H56Z" id="el_9cWL1Ww0__"></path><path d="M88,408h16v16H88Z" id="el_yxDdmLt78w"></path><path d="M120,408h16v16H120Z" id="el_nksOYajNgO"></path><path d="M88,312h96v16H88Z" id="el_OkU69tzmqO"></path></svg> 