<?xml version="1.0" encoding="UTF-8"?> <svg xmlns="http://www.w3.org/2000/svg" id="el_lyouUdUer" data-name="Layer 1" viewBox="0 0 512 512"><style>@-webkit-keyframes kf_el_sQnkHmhwIj_an_mQHS32fNE{0%{opacity: 1;}23.33%{opacity: 0;}50%{opacity: 1;}82.22%{opacity: 0;}100%{opacity: 1;}}@keyframes kf_el_sQnkHmhwIj_an_mQHS32fNE{0%{opacity: 1;}23.33%{opacity: 0;}50%{opacity: 1;}82.22%{opacity: 0;}100%{opacity: 1;}}@-webkit-keyframes kf_el_D9ZzxOJ8wW_an_12qkDpaJU{0%{opacity: 1;}7.78%{opacity: 0;}13.33%{opacity: 1;}22.22%{opacity: 0;}28.89%{opacity: 1;}44.44%{opacity: 0;}54.44%{opacity: 1;}66.67%{opacity: 0;}81.11%{opacity: 1;}91.11%{opacity: 0;}100%{opacity: 1;}}@keyframes kf_el_D9ZzxOJ8wW_an_12qkDpaJU{0%{opacity: 1;}7.78%{opacity: 0;}13.33%{opacity: 1;}22.22%{opacity: 0;}28.89%{opacity: 1;}44.44%{opacity: 0;}54.44%{opacity: 1;}66.67%{opacity: 0;}81.11%{opacity: 1;}91.11%{opacity: 0;}100%{opacity: 1;}}@-webkit-keyframes kf_el_44rp2V6n10_an_nPpqqs1Nc{0%{opacity: 1;}5.56%{opacity: 0;}12.22%{opacity: 1;}20%{opacity: 0;}33.33%{opacity: 1;}47.78%{opacity: 0;}53.33%{opacity: 1;}64.44%{opacity: 0;}73.33%{opacity: 1;}86.67%{opacity: 0;}100%{opacity: 1;}}@keyframes kf_el_44rp2V6n10_an_nPpqqs1Nc{0%{opacity: 1;}5.56%{opacity: 0;}12.22%{opacity: 1;}20%{opacity: 0;}33.33%{opacity: 1;}47.78%{opacity: 0;}53.33%{opacity: 1;}64.44%{opacity: 0;}73.33%{opacity: 1;}86.67%{opacity: 0;}100%{opacity: 1;}}@-webkit-keyframes kf_el_WgisaDj9nf_an_JmMn1cKkq{22.22%{-webkit-transform: translate(91.21500015258789px, 87.95500183105469px) scale(0, 0) translate(-91.21500015258789px, -87.95500183105469px);transform: translate(91.21500015258789px, 87.95500183105469px) scale(0, 0) translate(-91.21500015258789px, -87.95500183105469px);}30%{-webkit-transform: translate(91.21500015258789px, 87.95500183105469px) scale(1, 1) translate(-91.21500015258789px, -87.95500183105469px);transform: translate(91.21500015258789px, 87.95500183105469px) scale(1, 1) translate(-91.21500015258789px, -87.95500183105469px);}68.89%{-webkit-transform: translate(91.21500015258789px, 87.95500183105469px) scale(1, 1) translate(-91.21500015258789px, -87.95500183105469px);transform: translate(91.21500015258789px, 87.95500183105469px) scale(1, 1) translate(-91.21500015258789px, -87.95500183105469px);}77.78%{-webkit-transform: translate(91.21500015258789px, 87.95500183105469px) scale(0, 0) translate(-91.21500015258789px, -87.95500183105469px);transform: translate(91.21500015258789px, 87.95500183105469px) scale(0, 0) translate(-91.21500015258789px, -87.95500183105469px);}0%{-webkit-transform: translate(91.21500015258789px, 87.95500183105469px) scale(0, 0) translate(-91.21500015258789px, -87.95500183105469px);transform: translate(91.21500015258789px, 87.95500183105469px) scale(0, 0) translate(-91.21500015258789px, -87.95500183105469px);}100%{-webkit-transform: translate(91.21500015258789px, 87.95500183105469px) scale(0, 0) translate(-91.21500015258789px, -87.95500183105469px);transform: translate(91.21500015258789px, 87.95500183105469px) scale(0, 0) translate(-91.21500015258789px, -87.95500183105469px);}}@keyframes kf_el_WgisaDj9nf_an_JmMn1cKkq{22.22%{-webkit-transform: translate(91.21500015258789px, 87.95500183105469px) scale(0, 0) translate(-91.21500015258789px, -87.95500183105469px);transform: translate(91.21500015258789px, 87.95500183105469px) scale(0, 0) translate(-91.21500015258789px, -87.95500183105469px);}30%{-webkit-transform: translate(91.21500015258789px, 87.95500183105469px) scale(1, 1) translate(-91.21500015258789px, -87.95500183105469px);transform: translate(91.21500015258789px, 87.95500183105469px) scale(1, 1) translate(-91.21500015258789px, -87.95500183105469px);}68.89%{-webkit-transform: translate(91.21500015258789px, 87.95500183105469px) scale(1, 1) translate(-91.21500015258789px, -87.95500183105469px);transform: translate(91.21500015258789px, 87.95500183105469px) scale(1, 1) translate(-91.21500015258789px, -87.95500183105469px);}77.78%{-webkit-transform: translate(91.21500015258789px, 87.95500183105469px) scale(0, 0) translate(-91.21500015258789px, -87.95500183105469px);transform: translate(91.21500015258789px, 87.95500183105469px) scale(0, 0) translate(-91.21500015258789px, -87.95500183105469px);}0%{-webkit-transform: translate(91.21500015258789px, 87.95500183105469px) scale(0, 0) translate(-91.21500015258789px, -87.95500183105469px);transform: translate(91.21500015258789px, 87.95500183105469px) scale(0, 0) translate(-91.21500015258789px, -87.95500183105469px);}100%{-webkit-transform: translate(91.21500015258789px, 87.95500183105469px) scale(0, 0) translate(-91.21500015258789px, -87.95500183105469px);transform: translate(91.21500015258789px, 87.95500183105469px) scale(0, 0) translate(-91.21500015258789px, -87.95500183105469px);}}@-webkit-keyframes kf_el_-3mu04QkRX_an_cZ0ffBvyl{0%{-webkit-transform: translate(88px, 88px) scale(0, 0) translate(-88px, -88px);transform: translate(88px, 88px) scale(0, 0) translate(-88px, -88px);}22.22%{-webkit-transform: translate(88px, 88px) scale(1, 1) translate(-88px, -88px);transform: translate(88px, 88px) scale(1, 1) translate(-88px, -88px);}77.78%{-webkit-transform: translate(88px, 88px) scale(1, 1) translate(-88px, -88px);transform: translate(88px, 88px) scale(1, 1) translate(-88px, -88px);}100%{-webkit-transform: translate(88px, 88px) scale(0, 0) translate(-88px, -88px);transform: translate(88px, 88px) scale(0, 0) translate(-88px, -88px);}}@keyframes kf_el_-3mu04QkRX_an_cZ0ffBvyl{0%{-webkit-transform: translate(88px, 88px) scale(0, 0) translate(-88px, -88px);transform: translate(88px, 88px) scale(0, 0) translate(-88px, -88px);}22.22%{-webkit-transform: translate(88px, 88px) scale(1, 1) translate(-88px, -88px);transform: translate(88px, 88px) scale(1, 1) translate(-88px, -88px);}77.78%{-webkit-transform: translate(88px, 88px) scale(1, 1) translate(-88px, -88px);transform: translate(88px, 88px) scale(1, 1) translate(-88px, -88px);}100%{-webkit-transform: translate(88px, 88px) scale(0, 0) translate(-88px, -88px);transform: translate(88px, 88px) scale(0, 0) translate(-88px, -88px);}}@-webkit-keyframes kf_el_pxHBA3Ugr3_an_70rTIHZXf{0%{-webkit-transform: translate(88px, 272px) rotate(0deg) translate(-88px, -272px);transform: translate(88px, 272px) rotate(0deg) translate(-88px, -272px);}100%{-webkit-transform: translate(88px, 272px) rotate(360deg) translate(-88px, -272px);transform: translate(88px, 272px) rotate(360deg) translate(-88px, -272px);}}@keyframes kf_el_pxHBA3Ugr3_an_70rTIHZXf{0%{-webkit-transform: translate(88px, 272px) rotate(0deg) translate(-88px, -272px);transform: translate(88px, 272px) rotate(0deg) translate(-88px, -272px);}100%{-webkit-transform: translate(88px, 272px) rotate(360deg) translate(-88px, -272px);transform: translate(88px, 272px) rotate(360deg) translate(-88px, -272px);}}#el_lyouUdUer *{-webkit-animation-duration: 3s;animation-duration: 3s;-webkit-animation-iteration-count: infinite;animation-iteration-count: infinite;-webkit-animation-timing-function: cubic-bezier(0, 0, 1, 1);animation-timing-function: cubic-bezier(0, 0, 1, 1);}#el_IYzxfqxe9a{fill: #ed4d79;}#el_qfpiVVANkR{fill: #ed4d79;}#el_2vX7aLyp-a{fill: #ed4d79;}#el_tSzBMi2QsS{fill: #4c4fe8;}#el_-3mu04QkRX{fill: #ed4d79;}#el_baCaAmXYRY{fill: #ed4d79;}#el_WgisaDj9nf{fill: #4c4fe8;}#el_Dk4E7iZQmW{fill: #4c4fe8;}#el_pxHBA3Ugr3{fill: #4c4fe8;}#el_sQnkHmhwIj{fill: #4c4fe8;-webkit-animation-fill-mode: backwards;animation-fill-mode: backwards;opacity: 1;-webkit-animation-name: kf_el_sQnkHmhwIj_an_mQHS32fNE;animation-name: kf_el_sQnkHmhwIj_an_mQHS32fNE;-webkit-animation-timing-function: cubic-bezier(0, 0, 1, 1);animation-timing-function: cubic-bezier(0, 0, 1, 1);}#el_D9ZzxOJ8wW{fill: #4c4fe8;-webkit-animation-fill-mode: backwards;animation-fill-mode: backwards;opacity: 1;-webkit-animation-name: kf_el_D9ZzxOJ8wW_an_12qkDpaJU;animation-name: kf_el_D9ZzxOJ8wW_an_12qkDpaJU;-webkit-animation-timing-function: cubic-bezier(0, 0, 1, 1);animation-timing-function: cubic-bezier(0, 0, 1, 1);}#el_44rp2V6n10{fill: #4c4fe8;-webkit-animation-fill-mode: backwards;animation-fill-mode: backwards;opacity: 1;-webkit-animation-name: kf_el_44rp2V6n10_an_nPpqqs1Nc;animation-name: kf_el_44rp2V6n10_an_nPpqqs1Nc;-webkit-animation-timing-function: cubic-bezier(0, 0, 1, 1);animation-timing-function: cubic-bezier(0, 0, 1, 1);}#el_pxHBA3Ugr3_an_70rTIHZXf{-webkit-animation-fill-mode: backwards;animation-fill-mode: backwards;-webkit-transform: translate(88px, 272px) rotate(0deg) translate(-88px, -272px);transform: translate(88px, 272px) rotate(0deg) translate(-88px, -272px);-webkit-animation-name: kf_el_pxHBA3Ugr3_an_70rTIHZXf;animation-name: kf_el_pxHBA3Ugr3_an_70rTIHZXf;-webkit-animation-timing-function: cubic-bezier(0, 0, 1, 1);animation-timing-function: cubic-bezier(0, 0, 1, 1);}#el_-3mu04QkRX_an_cZ0ffBvyl{-webkit-animation-fill-mode: backwards;animation-fill-mode: backwards;-webkit-transform: translate(88px, 88px) scale(0, 0) translate(-88px, -88px);transform: translate(88px, 88px) scale(0, 0) translate(-88px, -88px);-webkit-animation-name: kf_el_-3mu04QkRX_an_cZ0ffBvyl;animation-name: kf_el_-3mu04QkRX_an_cZ0ffBvyl;-webkit-animation-timing-function: cubic-bezier(0, 0, 1, 1);animation-timing-function: cubic-bezier(0, 0, 1, 1);}#el_WgisaDj9nf_an_JmMn1cKkq{-webkit-animation-fill-mode: backwards;animation-fill-mode: backwards;-webkit-transform: translate(91.21500015258789px, 87.95500183105469px) scale(0, 0) translate(-91.21500015258789px, -87.95500183105469px);transform: translate(91.21500015258789px, 87.95500183105469px) scale(0, 0) translate(-91.21500015258789px, -87.95500183105469px);-webkit-animation-name: kf_el_WgisaDj9nf_an_JmMn1cKkq;animation-name: kf_el_WgisaDj9nf_an_JmMn1cKkq;-webkit-animation-timing-function: cubic-bezier(0, 0, 1, 1);animation-timing-function: cubic-bezier(0, 0, 1, 1);}</style><defs></defs><title>Lead Generation</title><path d="M208,168h48V408H208Z" id="el_IYzxfqxe9a"></path><path d="M392,264h56v48H392Z" id="el_qfpiVVANkR"></path><path d="M160,504H32A24,24,0,0,1,8,480V416a24,24,0,0,1,24-24H86.11L160,355v37a24,24,0,0,1,24,24v64A24,24,0,0,1,160,504Z" id="el_2vX7aLyp-a"></path><path d="M464,224H448a308.18,308.18,0,0,1-171.44-51.9L258.43,160H200v71l-63.64-89.1-13,9.29L200,258.53V264H159.54v16H200V416h58.43l18.14-12.1a308.3,308.3,0,0,1,95.48-42.27c2.41,2.94,3.95,5.64,3.95,10.39,0,6-2.38,8.64-6,12.7-4.23,4.76-10,11.27-10,23.32s5.79,18.55,10,23.31c3.6,4.06,6,6.73,6,12.69s-2.38,8.61-6,12.65c-4.22,4.77-10,11.27-10,23.31a24,24,0,0,0,24,24h32a24,24,0,0,0,24-24V352.27c2.67-.08,5.32-.3,8-.3h16a40.05,40.05,0,0,0,40-40V264A40,40,0,0,0,464,224ZM376,344V320h64v16.3A324.91,324.91,0,0,0,376,344ZM440,304H376V272h64Zm0-48H376V231.91a325.66,325.66,0,0,0,64,7.76ZM267.69,390.56,253.57,400H216V176h37.57l14.12,9.41A324.51,324.51,0,0,0,360,227.7V348.24A324.24,324.24,0,0,0,267.69,390.56ZM424,480a8,8,0,0,1-8,8H384a8,8,0,0,1-8-8c0-6,2.38-8.63,6-12.67,4.23-4.76,10-11.26,10-23.29s-5.79-18.55-10-23.31c-3.6-4.06-6-6.73-6-12.69s2.38-8.64,6-12.7c4.23-4.76,10-11.27,10-23.32a29.94,29.94,0,0,0-3.29-14.12A306.31,306.31,0,0,1,424,352.94Zm64-168a24,24,0,0,1-24,24h-8V240h8a24,24,0,0,1,24,24Z" id="el_tSzBMi2QsS"></path><g id="el_-3mu04QkRX_an_cZ0ffBvyl" data-animator-group="true" data-animator-type="2"><path d="M88,168a80,80,0,1,1,80-80A80.09,80.09,0,0,1,88,168Z" id="el_-3mu04QkRX"></path></g><path d="M88,344a80,80,0,1,1,80-80A80.09,80.09,0,0,1,88,344Z" id="el_baCaAmXYRY"></path><g id="el_WgisaDj9nf_an_JmMn1cKkq" data-animator-group="true" data-animator-type="2"><path d="M56,134.91V41L126.43,88Zm16-64V105L97.57,88Z" id="el_WgisaDj9nf"></path></g><path d="M88,296a24,24,0,1,1,24-24A24,24,0,0,1,88,296Zm0-32a8,8,0,1,0,8,8A8,8,0,0,0,88,264Z" id="el_Dk4E7iZQmW"></path><g id="el_pxHBA3Ugr3_an_70rTIHZXf" data-animator-group="true" data-animator-type="1"><path d="M144,272H128a40,40,0,0,0-80,0H32a56,56,0,0,1,112,0Z" id="el_pxHBA3Ugr3"></path></g><path d="M136,456h16v16H136Z" id="el_sQnkHmhwIj"></path><path d="M40,456h80v16H40Z" id="el_D9ZzxOJ8wW"></path><path d="M40,424H152v16H40Z" id="el_44rp2V6n10"></path></svg> 